{
    "asset" : {
        "generator" : "Khronos glTF Blender I/O v1.4.40",
        "version" : "2.0"
    },
    "scene" : 0,
    "scenes" : [
        {
            "name" : "Scene",
            "nodes" : [
                0,
                1,
                2,
                3,
                4
            ]
        }
    ],
    "nodes" : [
        {
            "mesh" : 0,
            "name" : "Plane",
            "rotation" : [
                0.04220149293541908,
                -0.25853338837623596,
                0.01130605023354292,
                0.965013861656189
            ],
            "scale" : [
                3.0337910652160645,
                3.0337910652160645,
                3.0337910652160645
            ],
            "translation" : [
                4.371654987335205,
                0.6414480209350586,
                1.2472628355026245
            ]
        },
        {
            "mesh" : 1,
            "name" : "Plane.001",
            "rotation" : [
                0.04353627562522888,
                -0.08366192132234573,
                0.003658661153167486,
                0.9955359697341919
            ],
            "scale" : [
                4.145610332489014,
                4.145610332489014,
                4.145610332489014
            ],
            "translation" : [
                -1.3568737506866455,
                0.3724994957447052,
                -4.765178203582764
            ]
        },
        {
            "mesh" : 2,
            "name" : "Plane.002",
            "rotation" : [
                0.04368685185909271,
                0.011491508223116398,
                -0.0005025408463552594,
                0.9989791512489319
            ],
            "scale" : [
                4.802103519439697,
                4.8021039962768555,
                4.802103519439697
            ],
            "translation" : [
                -10.575987815856934,
                0.22738859057426453,
                -8.744812965393066
            ]
        },
        {
            "mesh" : 3,
            "name" : "Plane.003",
            "rotation" : [
                0.043377023190259933,
                0.11931945383548737,
                -0.005218018312007189,
                0.9918943047523499
            ],
            "scale" : [
                5.533465385437012,
                5.533465385437012,
                5.5334649085998535
            ],
            "translation" : [
                -21.8248291015625,
                -0.0643073245882988,
                -9.970722198486328
            ]
        },
        {
            "mesh" : 4,
            "name" : "Plane.004",
            "rotation" : [
                0.042553406208753586,
                0.22637143731117249,
                -0.009899563156068325,
                0.9730607271194458
            ],
            "scale" : [
                7.4932780265808105,
                7.493279457092285,
                7.493277549743652
            ],
            "translation" : [
                -35.95606231689453,
                -0.2920336127281189,
                -9.46906566619873
            ]
        }
    ],
    "materials" : [
        {
            "doubleSided" : true,
            "name" : "Material.002",
            "pbrMetallicRoughness" : {
                "baseColorTexture" : {
                    "index" : 0,
                    "texCoord" : 0
                },
                "metallicFactor" : 0,
                "roughnessFactor" : 0.5
            }
        },
        {
            "doubleSided" : true,
            "name" : "Material.003",
            "pbrMetallicRoughness" : {
                "baseColorTexture" : {
                    "index" : 1,
                    "texCoord" : 0
                },
                "metallicFactor" : 0,
                "roughnessFactor" : 0.5
            }
        },
        {
            "doubleSided" : true,
            "name" : "Material.005",
            "pbrMetallicRoughness" : {
                "baseColorTexture" : {
                    "index" : 2,
                    "texCoord" : 0
                },
                "metallicFactor" : 0,
                "roughnessFactor" : 0.5
            }
        },
        {
            "doubleSided" : true,
            "name" : "Material.006",
            "pbrMetallicRoughness" : {
                "baseColorTexture" : {
                    "index" : 3,
                    "texCoord" : 0
                },
                "metallicFactor" : 0,
                "roughnessFactor" : 0.5
            }
        },
        {
            "doubleSided" : true,
            "name" : "Material.004",
            "pbrMetallicRoughness" : {
                "baseColorTexture" : {
                    "index" : 4,
                    "texCoord" : 0
                },
                "metallicFactor" : 0,
                "roughnessFactor" : 0.5
            }
        }
    ],
    "meshes" : [
        {
            "name" : "Plane",
            "primitives" : [
                {
                    "attributes" : {
                        "POSITION" : 0,
                        "NORMAL" : 1,
                        "TEXCOORD_0" : 2
                    },
                    "indices" : 3,
                    "material" : 0
                }
            ]
        },
        {
            "name" : "Plane.001",
            "primitives" : [
                {
                    "attributes" : {
                        "POSITION" : 4,
                        "NORMAL" : 5,
                        "TEXCOORD_0" : 6
                    },
                    "indices" : 3,
                    "material" : 1
                }
            ]
        },
        {
            "name" : "Plane.002",
            "primitives" : [
                {
                    "attributes" : {
                        "POSITION" : 7,
                        "NORMAL" : 8,
                        "TEXCOORD_0" : 9
                    },
                    "indices" : 3,
                    "material" : 2
                }
            ]
        },
        {
            "name" : "Plane.003",
            "primitives" : [
                {
                    "attributes" : {
                        "POSITION" : 10,
                        "NORMAL" : 11,
                        "TEXCOORD_0" : 12
                    },
                    "indices" : 3,
                    "material" : 3
                }
            ]
        },
        {
            "name" : "Plane.004",
            "primitives" : [
                {
                    "attributes" : {
                        "POSITION" : 13,
                        "NORMAL" : 14,
                        "TEXCOORD_0" : 15
                    },
                    "indices" : 3,
                    "material" : 4
                }
            ]
        }
    ],
    "textures" : [
        {
            "sampler" : 0,
            "source" : 0
        },
        {
            "sampler" : 0,
            "source" : 1
        },
        {
            "sampler" : 0,
            "source" : 2
        },
        {
            "sampler" : 0,
            "source" : 3
        },
        {
            "sampler" : 0,
            "source" : 4
        }
    ],
    "images" : [
        {
            "bufferView" : 4,
            "mimeType" : "image/jpeg",
            "name" : "115940018_1416602141861681_3299755429081421120_n"
        },
        {
            "bufferView" : 8,
            "mimeType" : "image/jpeg",
            "name" : "2"
        },
        {
            "bufferView" : 12,
            "mimeType" : "image/jpeg",
            "name" : "4"
        },
        {
            "bufferView" : 16,
            "mimeType" : "image/jpeg",
            "name" : "5"
        },
        {
            "bufferView" : 20,
            "mimeType" : "image/jpeg",
            "name" : "3"
        }
    ],
    "accessors" : [
        {
            "bufferView" : 0,
            "componentType" : 5126,
            "count" : 4,
            "max" : [
                1,
                0,
                1
            ],
            "min" : [
                -1,
                0,
                -1
            ],
            "type" : "VEC3"
        },
        {
            "bufferView" : 1,
            "componentType" : 5126,
            "count" : 4,
            "type" : "VEC3"
        },
        {
            "bufferView" : 2,
            "componentType" : 5126,
            "count" : 4,
            "type" : "VEC2"
        },
        {
            "bufferView" : 3,
            "componentType" : 5123,
            "count" : 6,
            "type" : "SCALAR"
        },
        {
            "bufferView" : 5,
            "componentType" : 5126,
            "count" : 4,
            "max" : [
                1,
                0,
                1
            ],
            "min" : [
                -1,
                0,
                -1
            ],
            "type" : "VEC3"
        },
        {
            "bufferView" : 6,
            "componentType" : 5126,
            "count" : 4,
            "type" : "VEC3"
        },
        {
            "bufferView" : 7,
            "componentType" : 5126,
            "count" : 4,
            "type" : "VEC2"
        },
        {
            "bufferView" : 9,
            "componentType" : 5126,
            "count" : 4,
            "max" : [
                1,
                0,
                1
            ],
            "min" : [
                -1,
                0,
                -1
            ],
            "type" : "VEC3"
        },
        {
            "bufferView" : 10,
            "componentType" : 5126,
            "count" : 4,
            "type" : "VEC3"
        },
        {
            "bufferView" : 11,
            "componentType" : 5126,
            "count" : 4,
            "type" : "VEC2"
        },
        {
            "bufferView" : 13,
            "componentType" : 5126,
            "count" : 4,
            "max" : [
                1,
                0,
                1
            ],
            "min" : [
                -1,
                0,
                -1
            ],
            "type" : "VEC3"
        },
        {
            "bufferView" : 14,
            "componentType" : 5126,
            "count" : 4,
            "type" : "VEC3"
        },
        {
            "bufferView" : 15,
            "componentType" : 5126,
            "count" : 4,
            "type" : "VEC2"
        },
        {
            "bufferView" : 17,
            "componentType" : 5126,
            "count" : 4,
            "max" : [
                1,
                0,
                1
            ],
            "min" : [
                -1,
                0,
                -1
            ],
            "type" : "VEC3"
        },
        {
            "bufferView" : 18,
            "componentType" : 5126,
            "count" : 4,
            "type" : "VEC3"
        },
        {
            "bufferView" : 19,
            "componentType" : 5126,
            "count" : 4,
            "type" : "VEC2"
        }
    ],
    "bufferViews" : [
        {
            "buffer" : 0,
            "byteLength" : 48,
            "byteOffset" : 0
        },
        {
            "buffer" : 0,
            "byteLength" : 48,
            "byteOffset" : 48
        },
        {
            "buffer" : 0,
            "byteLength" : 32,
            "byteOffset" : 96
        },
        {
            "buffer" : 0,
            "byteLength" : 12,
            "byteOffset" : 128
        },
        {
            "buffer" : 0,
            "byteLength" : 23023,
            "byteOffset" : 140
        },
        {
            "buffer" : 0,
            "byteLength" : 48,
            "byteOffset" : 23164
        },
        {
            "buffer" : 0,
            "byteLength" : 48,
            "byteOffset" : 23212
        },
        {
            "buffer" : 0,
            "byteLength" : 32,
            "byteOffset" : 23260
        },
        {
            "buffer" : 0,
            "byteLength" : 44436,
            "byteOffset" : 23292
        },
        {
            "buffer" : 0,
            "byteLength" : 48,
            "byteOffset" : 67728
        },
        {
            "buffer" : 0,
            "byteLength" : 48,
            "byteOffset" : 67776
        },
        {
            "buffer" : 0,
            "byteLength" : 32,
            "byteOffset" : 67824
        },
        {
            "buffer" : 0,
            "byteLength" : 75089,
            "byteOffset" : 67856
        },
        {
            "buffer" : 0,
            "byteLength" : 48,
            "byteOffset" : 142948
        },
        {
            "buffer" : 0,
            "byteLength" : 48,
            "byteOffset" : 142996
        },
        {
            "buffer" : 0,
            "byteLength" : 32,
            "byteOffset" : 143044
        },
        {
            "buffer" : 0,
            "byteLength" : 73208,
            "byteOffset" : 143076
        },
        {
            "buffer" : 0,
            "byteLength" : 48,
            "byteOffset" : 216284
        },
        {
            "buffer" : 0,
            "byteLength" : 48,
            "byteOffset" : 216332
        },
        {
            "buffer" : 0,
            "byteLength" : 32,
            "byteOffset" : 216380
        },
        {
            "buffer" : 0,
            "byteLength" : 52579,
            "byteOffset" : 216412
        }
    ],
    "samplers" : [
        {
            "magFilter" : 9729,
            "minFilter" : 9986
        }
    ],
    "buffers" : [
        {
            "byteLength" : 268992,
            "uri" : "data:application/octet-stream;base64,"
        }
    ]
}
